<?xml version="1.0" encoding="UTF-8"?>
<svg width="16px" height="16px" viewBox="0 0 16 16" version="1.1" xmlns="http://www.w3.org/2000/svg" xmlns:xlink="http://www.w3.org/1999/xlink">
    <title>onion</title>
    <defs></defs>
    <g id="onion" stroke="none" stroke-width="1" fill="none" fill-rule="evenodd">
        <path d="M7.47070238,3.38224206 C7.23186151,2.5028722 6.97233174,1.62308364 8.87366696,4.4408921e-16 L8.87366696,0.000113687544 C8.14572562,0.965320936 8.77600936,1.33867083 8.69392696,2.02329722 C9.36752565,0.933374736 10.7903253,0.789787368 11.8884333,0.334923505 C10.6431583,1.59850841 9.72300609,3.05795044 8.87524898,3.88361241 L9.6358507,4.15511863 C9.6358507,4.15511863 9.27501511,4.42489353 9.52743882,4.95911272 C9.65035936,5.21926936 9.85710767,5.38741514 10.0560643,5.49588134 C10.2394376,5.55069385 10.4187806,5.61269109 10.5936905,5.68164129 C12.6087813,6.47613299 14,8.18134675 14,10.2383803 C14,13.0968586 11.3137496,15 8,15 C4.68625036,15 2,13.0968586 2,10.2383803 C2,8.40140797 3.11044937,6.84614642 4.80245393,5.95790561 C4.86922061,5.92314081 4.937062,5.88953483 5.00557508,5.85697179 C5.34048317,5.68140952 5.95495153,5.31464081 6.18735866,4.8796172 C6.261514,4.74090562 6.26057363,4.55305979 6.20885297,4.4070476 C6.11172559,4.13310092 5.57517408,3.53792744 5.57517408,3.53792744 L6.39988357,3 L7.47070238,3.38224206 Z" id="Combined-Shape" fill="#589A0F" fill-rule="nonzero"></path>
    </g>
</svg>
