<?xml version="1.0" encoding="UTF-8"?>
<svg width="16px" height="16px" viewBox="0 0 16 16" version="1.1" xmlns="http://www.w3.org/2000/svg" xmlns:xlink="http://www.w3.org/1999/xlink">
    <title>onion+lock</title>
    <defs></defs>
    <g id="onion+lock" stroke="none" stroke-width="1" fill="none" fill-rule="evenodd">
        <path d="M6.12228848,14.9544711 C3.22461281,14.6498012 1,12.8396709 1,10.2383803 C1,8.40140797 2.11044937,6.84614642 3.80245393,5.95790561 C3.86922061,5.92314081 3.937062,5.88953483 4.00557508,5.85697179 C4.34048317,5.68140952 4.95495153,5.31464081 5.18735866,4.8796172 C5.261514,4.74090562 5.26057363,4.55305979 5.20885297,4.4070476 C5.11172559,4.13310092 4.57517408,3.53792744 4.57517408,3.53792744 L5.39988357,3 L6.47070238,3.38224206 C6.23186151,2.5028722 5.97233174,1.62308364 7.87366696,0 L7.87366696,0.000113687544 C7.14572562,0.965320936 7.77600936,1.33867083 7.69392696,2.02329722 C8.36752565,0.933374736 9.79032527,0.789787368 10.8884333,0.334923505 C9.64315826,1.59850841 8.72300609,3.05795044 7.87524898,3.88361241 L8.6358507,4.15511863 C8.6358507,4.15511863 8.27501511,4.42489353 8.52743882,4.95911272 C8.56957789,5.04829846 8.6215686,5.12667085 8.67971976,5.19553247 C7.54569301,5.94640706 6.80000003,7.23368269 6.80000003,8.70000013 L6.80000003,8.80234816 C6.31732959,9.12491448 6,9.67479474 6,10.3000002 L6,14.3000003 C6,14.530995 6.04331804,14.7517071 6.12228848,14.9544711 Z" id="Combined-Shape" fill="#589A0F" fill-rule="nonzero"></path>
        <path d="M11.0000002,5.5 C9.22720009,5.5 7.80000003,6.92720006 7.80000003,8.70000013 L7.80000003,9.50000016 C7.35680001,9.50000016 7,9.85680017 7,10.3000002 L7,14.3000003 C7,14.7432004 7.35680001,15.1000004 7.80000003,15.1000004 L14.2000003,15.1000004 C14.6432003,15.1000004 15.0000003,14.7432004 15.0000003,14.3000003 L15.0000003,10.3000002 C15.0000003,9.85680017 14.6432003,9.50000016 14.2000003,9.50000016 L14.2000003,8.70000013 C14.2000003,6.92720006 12.7728002,5.5 11.0000002,5.5 Z M11.0000002,7.10000006 C11.8864002,7.10000006 12.6000002,7.81360009 12.6000002,8.70000013 L12.6000002,9.50000016 L9.4000001,9.50000016 L9.4000001,8.70000013 C9.4000001,7.81360009 10.1136001,7.10000006 11.0000002,7.10000006 Z" id="Shape" fill="#589A0F" fill-rule="nonzero"></path>
    </g>
</svg>
