<?xml version="1.0" encoding="UTF-8"?><svg version="1.1" viewBox="0 0 512 512" xmlns="http://www.w3.org/2000/svg" xmlns:xlink="http://www.w3.org/1999/xlink"><!--Generated by IJSVG (https://github.com/iconjar/IJSVG)--><defs><linearGradient id="a" x1="36.2366" x2="43.5414" gradientUnits="userSpaceOnUse" y1="-370.953" y2="-839.599" gradientTransform="matrix(1,0,0,1,-13.8595,859.1)"><stop offset="0%" stop-color="#58C4F3"></stop><stop offset="100%" stop-color="#C3ECFA"></stop></linearGradient><linearGradient id="b" x1="116.508" x2="117.304" gradientUnits="userSpaceOnUse" y1="-403.495" y2="-494.65" gradientTransform="matrix(1,0,0,1,-13.8595,859.1)" xlink:href="#a"></linearGradient><linearGradient id="c" x1="116.508" x2="117.304" gradientUnits="userSpaceOnUse" y1="-403.495" y2="-494.65" gradientTransform="matrix(1,0,0,1,-13.8595,859.1)" xlink:href="#a"></linearGradient><linearGradient id="d" x1="116.508" x2="117.304" gradientUnits="userSpaceOnUse" y1="-403.495" y2="-494.65" gradientTransform="matrix(1,0,0,1,-13.8595,859.1)" xlink:href="#a"></linearGradient><linearGradient id="e" x1="36.2366" x2="43.5414" gradientUnits="userSpaceOnUse" y1="-370.953" y2="-839.599" gradientTransform="matrix(1,0,0,1,-13.8595,859.1)" xlink:href="#a"></linearGradient><linearGradient id="f" x1="36.2366" x2="43.5414" gradientUnits="userSpaceOnUse" y1="-370.953" y2="-839.599" gradientTransform="matrix(1,0,0,1,-13.8595,859.1)" xlink:href="#a"></linearGradient><linearGradient id="g" x1="176.373" x2="155.758" gradientUnits="userSpaceOnUse" y1="265.345" y2="-242.476" gradientTransform="matrix(1,0,0,1,-161.075,237.311)"><stop offset="0%" stop-color="#333"></stop><stop offset="100%" stop-color="#636463"></stop></linearGradient><linearGradient id="h" x1="600.201" x2="592.613" gradientUnits="userSpaceOnUse" y1="279.823" y2="-242.508" gradientTransform="matrix(1,0,0,1,-161.944,237.342)" xlink:href="#g"></linearGradient></defs><path opacity="0.50" d="M97.4527,195.916c0,0.96483 0,1.91633 0,2.85004c2.16532,1.52061 7.2407,0.98262 6.34701,-2.85004c-1.15158,-1.04264 -5.21544,-1.04264 -6.34701,0Z" fill="url(#a)"></path><path opacity="0.50" fill="url(#b)" d="M97.4126,399.714c0.14005,3.21908 -0.19786,6.87389 2.86115,7.11176c3.0101,-1.50727 0.90481,-7.90541 -2.86115,-7.11176Z"></path><path opacity="0.50" d="M139.185,440.759c2.31427,-0.51577 4.4907,-1.15158 4.25061,-4.21281c-1.65845,-0.71363 -3.46585,-1.23161 -5.64228,-1.43169c-1.03375,3.14127 -0.21787,3.77708 1.39167,5.6445Z" fill="url(#c)"></path><path opacity="0.50" fill="url(#d)" d="M146.962,438.694c-0.269,1.78739 -2.08529,2.10529 -2.12531,4.21281c2.1342,1.94745 4.22171,-0.51576 6.36702,-0.71584c-0.15784,-2.4232 -2.09418,-3.06124 -4.24171,-3.49697Z"></path><path opacity="0.50" d="M432.899,338.224c0,-2.02527 0.99373,-3.03901 0.59802,-5.4422c3.61479,-2.70109 3.35913,-5.92017 4.84862,-11.5024c2.14531,-8.20554 11.9982,-22.1734 3.61479,-28.3514c-3.09903,2.84115 -0.93371,5.04649 -2.4232,7.82761c-2.54325,4.68856 -9.37712,5.24434 -12.0804,9.05921c-2.95897,4.27284 -3.99272,11.9604 -1.78961,15.6975c-4.42845,4.98645 -7.13177,12.574 -3.019,19.9458c5.56447,-0.28012 7.154,-4.49293 10.2508,-7.23403Z" fill="url(#e)"></path><path fill="url(#f)" d="M256.023,20.9362c-129.635,0 -235.097,105.425 -235.097,235.059c0,129.615 105.465,235.068 235.059,235.068c129.615,0 235.088,-105.416 235.088,-235.068c-0.002,-129.635 -105.476,-235.059 -235.05,-235.059Zm-46.3409,14.7104c2.27425,-0.50687 4.57073,-0.93371 6.89389,-1.36055c0.28678,-0.0489 0.57579,-0.08 0.84479,-0.14895c29.483,-4.94644 63.4167,-3.34801 91.1901,2.90118c6.9139,1.68957 13.7678,3.65703 20.4238,5.95129c-4.2506,4.60852 -2.02526,18.1784 4.25283,19.2611c4.17279,0.68473 5.1643,-2.60327 9.69502,-3.6259c0.99151,4.2217 3.65481,6.84498 6.038,9.66612c0.12004,2.92118 -4.50849,1.13379 -3.63481,4.83751c1.1916,3.67482 9.51496,3.79486 12.0982,2.3943c0.71362,-5.32437 0.47575,-11.5736 4.84863,-13.272c0.69583,-3.77485 -2.94119,-3.13904 -3.03901,-6.08023c5.66229,2.0675 9.31487,6.10024 14.9394,8.16552c0.22009,0.18007 0.45797,0.3268 0.69584,0.47797c-1.96746,4.5196 2.44321,5.35327 2.46099,9.50606c-2.82113,0.23787 -1.80739,-3.40804 -4.80638,-3.0101c-4.01495,1.22271 -2.92118,7.5586 -4.84862,10.8777c-7.27183,-2.64106 -13.75,3.09903 -19.908,-2.4232c1.88965,-4.06386 -2.66107,-3.82376 -4.2506,-6.06022c1.58953,-4.35065 1.80739,-6.31811 0,-10.8577c-8.06548,0.44685 -6.99394,9.16815 -4.2306,14.5236c-2.60327,0.17785 -7.01172,0.0289 -10.2708,1.20271c-2.02749,2.36317 -2.38319,6.47595 -7.23181,6.00909c-1.84741,-1.61843 2.10529,-2.93896 0,-4.8175c-0.8559,-1.16269 -3.11904,-0.89369 -4.2306,-1.7985c-0.10004,-4.15279 -2.46321,-6.01132 -5.46443,-7.25182c0.47797,-2.27425 0.75586,-4.28173 -2.38318,-4.2217c-0.37793,-2.60105 1.94745,-2.47211 1.8074,-4.83751c-0.49798,-1.58064 -1.92745,-2.13642 -4.23282,-1.83852c-0.51354,-1.69846 0.87591,-1.54952 0.59802,-3.01011c-0.97373,-1.02263 -3.557,-0.48686 -5.4422,-0.63581c-2.9034,1.7496 -2.46322,6.82498 -4.82862,9.07033c-0.32013,1.93856 2.95897,0.22898 2.40319,2.4232c0.41795,2.41431 -2.86115,0.79365 -3.01899,0c-3.87268,1.57842 -4.84863,4.88642 -9.67502,4.27061c0.53577,2.29426 0.81366,4.83751 0.61358,7.82761c1.49172,1.5295 4.31063,1.76738 5.48444,3.61479c3.49697,-0.71584 6.16026,-2.23423 7.8276,-4.80861c0,-1.8563 0,-3.61479 0,-5.44442c1.46949,-0.57579 2.60105,-1.43169 4.8464,-1.22049c-0.59579,2.41208 1.78962,1.7985 1.1916,4.24171c-1.48949,-0.0978 -2.91896,-0.12005 -3.6348,0.5669c-0.41795,2.27425 1.01151,2.60105 0.61358,4.83751c-1.46949,-0.0889 -2.90117,-0.0889 -3.6148,0.63581c0.19786,1.57841 1.43169,2.15642 3.6148,1.75849c-0.27789,2.57215 -2.85894,2.81002 -3.6148,4.87752c4.25061,1.43169 11.3846,0.50687 15.0994,-0.5958c-1.1538,2.9612 2.00526,1.57842 1.8074,3.6059c-5.96241,-3.07012 -6.14026,2.4032 -13.292,1.20271c-0.83367,0.77587 -0.61358,2.63218 -0.61358,4.21281c5.38439,2.78113 13.2098,5.9802 9.67501,15.7241c-8.50121,1.34276 -17.9584,-4.69745 -22.9448,0.59579c3.57478,7.36075 -0.75586,14.6526 0.5958,21.7354c3.63702,0.98262 8.90137,0.38683 10.8688,3.019c-1.78961,1.64956 -3.61479,3.22797 -3.61479,6.63601c-8.88136,2.00526 -7.63197,14.1057 -13.292,19.3411c-10.8577,4.06387 -13.7078,16.0821 -19.9258,24.7456c5.17542,5.23322 2.7411,17.0647 -0.59802,22.3601c0.89369,2.1053 2.50323,3.49697 1.81851,7.24071c1.71625,2.90117 4.88642,4.35953 7.8365,6.06022c4.17057,9.53718 8.93916,21.7354 19.29,22.927c4.55073,0.53577 6.85611,-3.40804 10.9066,-3.61479c3.8371,-0.19786 4.96645,2.7211 9.0392,3.019c6.25809,-1.66957 11.8403,-7.14289 18.1006,-6.04022c5.28436,0.92482 8.85914,10.0129 15.1194,5.44442c2.24535,4.12166 1.33165,12.6762 -0.6158,16.291c2.28536,7.80982 8.20553,11.9604 9.65723,20.5639c11.3624,8.04547 -1.62955,20.1637 -0.59802,30.7946c0.55578,5.30436 5.32659,9.35711 6.04021,15.0572c1.34944,11.2468 4.72858,19.4301 10.2708,27.7957c0.10004,1.70958 -2.04527,1.1538 -1.1916,3.6148c2.38319,9.41713 12.2983,-0.49576 18.0806,1.78961c5.86014,-3.63703 12.6162,-6.31811 14.5214,-13.8878c7.66754,-2.95897 8.14551,-13.132 12.0804,-19.9258c0.97372,0 2.00525,0 2.9812,0c2.1831,-3.23909 2.46099,-9.99293 0,-13.272c2.78112,-5.72231 7.96544,-8.93916 12.714,-12.6762c0.23787,-7.58751 3.21908,-12.2383 1.21382,-18.1162c-0.97372,-2.78334 -4.47069,-4.15278 -4.82861,-6.63601c-1.44948,-9.5772 11.0845,-12.0404 12.0604,-22.3713c1.62732,-0.37793 2.30315,-1.69846 3.61479,-2.41431c1.92745,-10.5798 9.43715,-18.7453 8.44341,-30.1588c-4.4907,2.18533 -10.133,2.65218 -14.4636,3.58589c-1.58953,-1.91633 1.11378,-3.34802 1.80739,-4.8175c-4.90642,-7.5297 -15.0394,-15.7842 -13.272,-25.9771c-4.03274,-5.25323 -8.44341,-13.2698 -9.07922,-19.9369c3.73484,-0.77587 4.94866,5.84014 6.04021,9.65501c0.63582,2.45433 3.21686,2.84115 4.2306,4.84863c0.53577,11.1445 9.07922,14.2657 9.67724,25.3813c2.30315,1.91633 2.02526,6.41815 5.42219,7.26071c2.40319,0.34903 1.72736,-2.29426 1.80739,-4.24171c6.45594,-4.39066 14.3636,-7.39187 19.9058,-12.7051c-0.0778,-4.45958 2.7411,-4.92643 2.42542,-8.46342c-0.32013,-3.82376 -5.42441,-5.23544 -5.42441,-9.6261c4.15279,0.38682 6.55598,2.57437 11.3046,2.3943c0.51577,1.72736 1.03375,3.49696 1.51172,5.22433c5.06427,20.1259 8.54345,41.1166 7.70756,64.8373c-3.53476,98.2241 -57.9323,163.606 -127.427,198.055c-7.88763,-0.71362 -14.5214,-1.03375 -18.1184,3.61702c-3.79264,-0.43796 -5.02647,-2.50324 -8.46341,-0.59802c0.08,-3.29689 -5.80012,-0.63581 -6.02021,-3.65703c-9.635,1.23383 -18.6364,2.30537 -25.9838,6.08023c-2.64329,1.38945 -4.53072,4.2506 -7.25404,4.84862c-1.78739,0.3557 -4.29062,-0.83589 -6.04022,-0.59802c-5.28435,0.67583 -14.1946,8.02547 -20.5216,9.02142c-2.86115,0.47575 -5.80234,-0.28011 -9.0392,0c-15.2284,7.11176 -44.3935,-1.74959 -58.597,-6.0002c0.0289,-2.02526 1.70958,-2.34539 1.1827,-4.84862c-9.54607,-5.72009 -16.291,-14.3058 -25.3413,-20.5416c-0.20897,-4.60852 3.67482,-5.20654 7.2407,-6.04021c-2.41208,-5.6823 -15.0283,-3.29689 -14.5014,4.80638c0.18008,2.6633 2.12531,2.54547 2.43432,6.08023c-2.73221,-1.35165 -3.13904,-4.92865 -6.6449,-5.48443c1.59842,-1.07155 1.33164,-4.09276 -1.20271,-4.21281c-2.78112,-0.55578 -1.16047,3.25909 -2.4232,4.21281c-3.00121,0.12005 -2.9612,-0.59802 -5.43331,0c0.27789,3.85266 5.23545,5.04648 7.85651,3.05901c1.26273,2.18533 1.26273,3.21908 0,5.4044c2.24535,3.41694 7.81871,3.10126 11.4735,2.42543c1.24272,0.19786 -0.12894,-1.70958 -0.62692,-1.78961c1.27162,-1.62733 2.6922,1.66956 3.03011,3.01899c-10.7488,4.96645 -21.7955,-3.25909 -33.8248,-10.8466c-52.0721,-33.06 -96.7635,-93.5555 -103.855,-166.111c-3.039,-31.2015 -0.269,-66.2579 9.65501,-89.3716c1.96746,2.27425 1.11156,7.38075 3.62591,9.05921c4.02385,-2.4232 -1.26051,-9.59499 -1.20271,-13.8678c1.22049,4.12166 4.90642,7.76758 6.0291,12.0782c0.615804,2.32538 -0.815885,3.87489 -0.595796,6.0002c0.724737,7.20068 6.37813,7.94765 12.674,12.7051c3.019,0.78477 2.58326,-1.8563 4.83751,-1.81851c1.76738,8.12551 13.5299,6.20918 13.8878,15.7152c1.29163,1.94745 4.07276,2.37429 4.2217,5.4044c3.19018,-0.5958 2.89005,2.34317 6.66713,2.45432c1.11156,-0.85367 0.12895,-3.88379 2.3943,-3.64591c3.05902,2.60327 3.24798,8.03657 3.03012,13.8789c-2.27425,5.55336 -9.68391,13.5099 -4.24172,19.33c-4.65965,4.80861 0.23788,12.6362 4.24172,14.4636c2.27425,8.82134 5.74231,16.4489 10.8777,22.4113c5.01536,0.99151 7.02284,5.00647 9.66612,8.4234c0.0289,12.8141 1.66734,23.8207 2.9901,35.0052c0.74475,6.16027 -1.46948,12.1605 -1.19159,18.1384c0.36904,8.20553 6.46705,13.5699 5.42441,22.3512c-0.93371,0.08 -2.30537,-0.27789 -2.41431,0.59802c-0.98262,3.61479 2.37429,2.88116 3.03901,4.84862c2.61216,8.64127 4.39955,18.0984 12.6762,21.1174c1.88743,0.27789 0.45797,-2.78113 1.85631,-2.97898c0.5869,-1.54952 0.18007,5.12429 -1.81629,4.8464c2.66108,3.85489 10.7288,5.9624 15.7152,4.25283c-5.35549,-3.97494 -10.2908,-8.26556 -13.272,-14.4636c1.71847,-2.74111 3.28799,-5.64228 4.7886,-8.48342c-0.30901,-2.90118 -3.44806,-3.019 -4.7886,-4.84863c-0.52688,-2.50323 2.6833,-1.31164 3.59701,-2.4232c-0.92482,-0.9137 -0.538,-3.08124 -0.61581,-4.84862c0.77587,-0.79366 2.9612,-0.23788 3.05902,-1.78961c0.22898,-3.11682 -4.83751,-0.83367 -4.25283,-4.25061c1.5006,0.51576 3.22797,0.81366 5.42441,0.63581c0.93371,-2.1253 0.02,-4.05274 0,-6.07801c8.95917,3.07902 13.9856,-3.63702 9.68391,-10.2508c1.71847,0.0778 3.95271,-0.32013 4.8175,0.63359c7.09175,-4.19058 9.43714,-13.1298 14.5036,-19.35c0.22898,-2.90118 -1.08266,-4.13056 -0.60469,-7.27183c2.29426,-3.73484 7.19179,-4.84862 10.2619,-7.86762c2.70109,-0.27789 5.1443,0.87591 7.23181,0c5.58225,-2.1831 7.8076,-19.25 6.65602,-28.9472c2.32316,-1.72736 13.9367,-13.7278 11.4935,-20.5216c-2.68331,-7.45189 -19.1922,-15.1795 -30.2189,-13.8878c-2.75222,-6.49596 -10.1819,-5.62005 -15.6952,-8.48121c-2.07639,-10.8177 -6.55598,-19.2211 -20.5527,-18.1184c-2.67219,-6.0291 -11.3246,-8.3945 -12.0693,-14.4636c-3.88379,-0.47574 -6.56709,0.269 -7.84761,2.4232c-2.26536,-1.52061 -3.35691,-0.81588 -6.616,-0.60691c-1.07155,-2.21422 -3.42805,-3.0679 -4.26172,-5.46443c-2.78113,0.0489 -2.47211,2.05639 -3.6148,-0.59579c-4.99757,2.24535 -10.0529,4.45068 -11.4624,10.2219c-2.22534,-1.11156 -7.11176,-2.6922 -10.8688,0c-6.43593,-5.26434 4.01495,-23.5028 -11.4824,-18.6853c1.13157,-4.96645 3.21908,-8.99919 4.13278,-14.1346c1.71847,0.14895 3.56588,0.08 4.8264,1.87631c1.5006,-2.75222 4.5196,-3.94381 9.19927,-3.49697c-0.0289,-8.04769 -8.62126,-8.1544 -14.8416,-6.39813c-1.94523,-3.24798 -8.1544,-7.91653 -14.0168,-9.53719c1.40057,-2.11641 3.3169,-3.73484 5.87126,-4.56851c2.86115,-0.23787 2.95008,2.30538 5.42441,2.41431c1.58953,-0.6158 2.00525,-2.43432 1.8274,-4.80861c4.62853,-0.95372 5.10428,0.98262 9.05921,0c0.59802,5.05538 1.62954,9.65501 3.6059,13.272c6.83387,-6.038 -0.8937,-16.5 3.63702,-23.5228c3.288,-5.20655 9.58609,-5.20655 11.4624,-11.5024c0.35792,-1.95635 -0.42684,-2.81225 -0.5958,-4.19281c3.6059,-2.26536 4.67744,-7.04284 6.63601,-10.9066c3.86378,-1.38056 4.96645,-5.50445 9.05921,-6.60711c0.75364,-2.4232 -1.97635,-1.26051 -1.2116,-3.64592c1.73848,-3.88379 6.96281,-4.33064 9.68614,-7.27182c0.81366,1.02263 -0.54689,3.55699 1.19159,4.85751c3.8749,-2.79001 9.01919,-4.26172 12.6762,-7.25181c0.49575,-2.71221 -1.05376,-3.34802 -3.00122,-3.57478c0.08,-1.7985 2.56326,-1.11156 2.40542,-3.05012c-0.43795,-2.18533 -4.58852,-0.6247 -6.04022,-1.7985c0.52688,-5.37328 5.65117,-2.41431 9.05922,-4.86641c0.57578,-2.9612 -3.83488,-0.99374 -4.8264,-2.38541c3.74596,-2.10529 10.362,-1.36055 10.8777,-6.6738c5.41552,-0.80477 8.23666,-4.22171 9.635,-9.0192c-0.30902,-3.11904 -4.71968,-2.13642 -4.19281,-6.04022c-2.21422,0.16896 -3.94381,-0.10004 -5.44442,-0.63581c-1.40056,-5.85125 -2.91895,-11.5624 -4.8464,-16.9157c-1.87853,0.20898 -2.9812,1.1916 -3.83488,2.41209c-2.16532,1.76738 -4.11277,3.77486 -5.81123,6.05133c-0.18007,-1.23161 -1.63844,-1.19382 -2.4232,-1.8074c1.02263,-2.58326 2.35428,-4.85751 3.62591,-7.25181c12.943,-6.97393 25.5903,-14.2257 41.0655,-18.7053c1.96746,0.85368 2.18533,3.45695 4.82639,3.64592c-1.12267,2.43431 -1.17158,3.49696 0.60692,5.4333c2.4432,0.38682 3.45695,-0.63581 5.4333,-0.63581c1.23161,0.81366 1.52061,2.49434 3.0101,3.03011c4.61965,-2.84115 10.9355,-6.97393 9.05922,-12.7051c2.69219,-1.32053 3.05012,-4.96645 4.84862,-7.23181c0.0356,-0.0289 0.10671,-0.0289 0.15562,-0.0289Zm229.059,88.7981c1.66956,2.85004 2.88116,6.07801 3.21685,10.2308c2.34539,3.11014 4.72858,6.14914 4.80861,11.4735c-7.19179,0.30901 -10.8866,-4.03274 -10.6487,-10.0441c1.76738,-1.46948 3.8949,-2.62328 4.52849,-5.28435c-1.62732,-0.5958 -3.09903,-0.81589 -4.37065,-0.68695c-4.45069,-4.90642 -8.50121,-12.1382 -8.82134,-18.9832c2.34539,2.9901 5.1065,5.52223 7.62974,8.36338c1.23161,1.64288 2.46544,3.26132 3.65704,4.93088Zm5.76232,8.40339c0.27789,0.48686 0.33569,1.19159 0.47575,1.82741c-1.58953,0.20897 -1.98747,-0.80477 -1.8274,-2.38319c0.6158,-0.0689 0.95594,0.08 1.21382,0.34681c0.0578,0.06 0.0778,0.11782 0.13783,0.20897Zm13.7478,50.1647c-1.92522,2.91896 -2.70109,6.93391 -7.86762,6.6249c-1.34943,-1.63844 -1.70958,-4.33064 -1.76738,-7.23181c-1.1538,-1.19381 -2.22534,-0.22898 -3.63702,0c-0.95372,-3.87489 -3.45695,-6.21806 -3.65481,-10.8777c6.51596,1.76738 5.12652,11.3535 11.4824,13.272c2.6633,0.20898 3.12126,-1.70735 5.44442,-1.78739Zm-80.9193,-21.1396c-9.51717,-3.40804 -14.9216,-10.8577 -24.1386,-14.5014c1.44947,-4.92643 -2.82114,-5.82235 -1.19159,-9.07922c-1.78739,-0.6247 -3.51698,-1.31164 -4.84862,-2.3943c-1.86743,0.18897 -2.74111,1.28274 -4.2306,1.78739c-7.52971,-0.85368 -14.1657,-1.54952 -21.1397,0c-6.51596,1.5006 -13.0519,6.63601 -19.33,1.23161c7.86762,-0.41795 13.3721,-2.44321 17.5249,-6.6249c-1.33387,-10.173 7.62975,-10.0529 9.03698,-17.5337c5.78234,2.0675 10.193,0.54688 14.5236,-1.81629c4.90643,7.5586 15.8931,9.07033 18.0784,19.35c-3.09903,0.52688 -5.84013,1.5095 -9.0192,-0.60469c-1.15379,3.50586 2.82114,6.72494 4.80639,9.03031c1.86742,0.44685 2.24535,-0.59579 3.61702,-0.59579c0.29789,-2.06528 -0.22009,-3.34802 -0.59802,-4.8175c1.8274,-0.06 3.10125,1.76738 4.21281,0.59579c0.39794,-1.78738 1.70958,-2.7122 3.61701,-2.99009c0.43573,-2.26536 -1.29163,-2.36318 -1.19159,-4.24171c2.02526,0 2.97898,2.90117 4.84862,1.19159c0.19786,-5.4133 -5.76232,-4.68856 -6.63601,-9.05921c3.67482,-1.09156 4.72858,0.48686 7.23181,1.80739c1.46948,10.0329 5.16431,17.8316 13.3098,21.1596c0.95594,0.40684 0.95594,-2.84114 0,-2.4232c0.558,-1.8563 1.58953,0.69584 2.38318,0.5958c1.47171,0.24899 -0.3179,-2.75222 1.82741,-1.81851c-1.52951,-4.77749 -2.461,-6.46706 -2.4232,-12.6451c4.68856,0 4.35064,7.35186 4.23059,10.2108c2.86116,3.95271 6.93391,9.36823 13.9078,7.27183c2.08529,-0.12005 1.96746,2.02748 3.59478,2.4143c2.64107,0 3.85489,-1.43168 6.67603,-1.22271c-0.67583,5.74232 -0.15784,10.2819 -1.19159,16.3199c-11.8025,-0.95372 -23.345,-1.93634 -29.6409,-9.65501c-1.76961,1.82741 -6.83387,0.39794 -8.44564,2.40542c-0.45351,2.89672 0.95595,3.88156 0.59802,6.65157Zm-57.3565,-74.8791c1.86742,-0.92482 0.83367,3.46806 -0.59802,2.99009c-0.27567,-1.44058 1.07377,-1.31164 0.59802,-2.99009Zm89.9207,38.3844c-3.49697,-0.80477 -7.29183,-1.08266 -12.0404,0.23787c-1.11378,-1.43169 -2.08528,-3.13904 -3.63702,-4.2217c2.00748,-3.03901 3.2791,-6.80497 5.42441,-9.64389c2.90117,-0.23788 2.80113,2.4721 6.06023,1.7985c-0.69584,1.8074 -0.14006,2.02748 0.59579,3.6059c2.62328,-1.34276 5.3844,0.12005 7.86762,0.63581c0.49798,-2.30537 -1.29163,-2.36317 -2.40319,-3.03011c0.93371,-1.25162 4.21281,-0.16896 5.4422,-1.2116c-0.19786,1.36055 0.15784,2.26536 1.19159,2.41431c0.12005,1.31164 -2.1253,0.2979 -3.019,0.59579c2.30538,6.36702 11.1067,6.21807 12.6962,13.3009c-3.51698,0.0911 -6.49818,-0.68472 -9.39935,-1.63844c0,-0.0889 0.0422,-0.14895 0.0422,-0.23787c-2.3076,-0.98707 -5.72453,-3.05457 -8.82134,-2.6055Zm-331.576,71.9779c0.09782,0.21787 0.197858,0.41795 0.309014,0.60469c-1.91855,-0.12894 -3.04123,1.25162 -3.99272,2.97898c-2.56326,-4.8175 -7.8276,3.94382 -1.69846,3.34802c-1.30052,2.33427 -3.05012,4.25283 -6.5671,3.46807c-2.20533,-6.04022 -3.13904,-14.2835 -1.37166,-20.7417c3.44806,0.92482 6.27809,3.37692 6.24919,7.5097c4.63076,0.6158 6.70493,-1.30053 9.92401,-2.13642c-0.168957,1.35166 0.793653,1.56063 0.704729,2.84115c-2.03638,-0.14673 -3.8749,-0.0867 -3.55699,2.12752Zm32.691,30.3078c-0.0689,-1.48949 0.96483,-1.84741 1.23161,-3.01899c2.24535,0.44684 0.71584,3.25687 -1.23161,3.01899Zm-23.5228,-106.865c1.06487,0.44685 0.06,1.08266 0,1.8074c-1.08266,-0.42684 -0.10893,-1.08266 0,-1.8074Zm1.7985,-0.62692c0.8937,-1.10266 2.52324,-1.46059 3.03012,-3.01899c1.86742,0.54688 3.13904,1.67845 2.99009,4.24171c-2.08529,-0.46686 -2.30537,0.9137 -4.2306,0.6158c0.67361,-1.89854 0.64471,-1.91633 -1.78961,-1.83852Zm7.84762,3.05012c1.83852,0.83367 2.16531,-0.2979 4.8375,0c-0.0689,1.05376 0.74475,1.28274 0.60469,2.3943c-2.63217,-2.30537 -3.22797,1.28052 -3.6348,3.019c-0.63581,-1.76738 -1.47837,-3.3458 -1.80739,-5.4133Zm10.2419,-20.5327c-2.1053,-3.22797 -0.76476,-7.29183 0,-10.8577c0.12894,-1.34276 -2.1053,-0.29789 -3.00121,-0.6158c3.577,-4.69745 9.0392,-10.6487 14.5036,-11.4824c-0.0489,7.02283 -5.01536,9.08811 -8.46342,12.674c1.5095,3.288 1.76961,10.0241 -3.039,10.2819Zm27.7957,3.019c-1.62954,-0.54689 0.60469,-2.12753 0.60469,-3.019c2.35428,0.33791 2.95008,-1.11156 5.45331,-0.5958c-0.33791,2.90118 -4.39955,2.02749 -6.058,3.6148Zm3.02789,7.2318c1.42057,0.18008 2.49434,0.71585 3.62591,1.20271c-0.57579,1.28274 -4.39955,0.83367 -3.62591,-1.20271Z"></path><path d="M94.1426,511.924c-28.5795,0 -52.0611,-8.22713 -68.5153,-24.684c-60.6556,-60.6555 -6.63085,-209.703 122.992,-339.326c60.7692,-60.7798 128.722,-107.323 191.333,-131.087c65.4285,-24.8531 117.981,-21.9645 148.004,8.08177c32.2029,32.1791 30.086,94.7586 -0.94085,166.406l-9.90268,-28.9575c20.289,-55.0633 18.9253,-99.0743 -4.31309,-122.292c-23.389,-23.3652 -69.0069,-24.5175 -125.246,-3.20311c-59.8389,22.7177 -125.098,67.5216 -183.774,126.208c-117.08,117.08 -173.401,258.593 -122.995,309.007c23.0402,23.0322 68.8721,23.5106 122.963,3.9801l29.8243,10.9915c-36.9441,16.5838 -70.7564,24.8743 -99.4285,24.8743Z" fill="url(#g)"></path><path fill="url(#h)" d="M418.537,511.895c-27.5092,0 -62.746,-9.88153 -97.8798,-25.0831l29.1451,-10.7193c54.3313,19.7208 99.114,19.0521 122.125,-3.9801c50.4146,-50.4146 -5.90407,-191.927 -123.005,-309.029c-117.077,-117.059 -258.582,-173.38 -309.007,-122.984c-23.4498,23.4498 -24.684,67.667 -4.00917,123.111l-10.9598,29.6895c-33.0908,-73.7851 -33.1543,-134.985 -0.19028,-167.96c60.6423,-60.6555 209.706,-6.615 339.326,122.984c129.623,129.62 183.658,278.692 123.005,339.347c-16.4146,16.4146 -39.9463,24.6232 -68.5497,24.6232Z"></path></svg>