<?xml version="1.0" encoding="UTF-8"?>
<svg width="16px" height="16px" viewBox="0 0 16 16" version="1.1" xmlns="http://www.w3.org/2000/svg" xmlns:xlink="http://www.w3.org/1999/xlink">
    <title>New Identity Icon</title>
    <g id="Page-1" stroke="none" stroke-width="1" fill="none" fill-rule="evenodd">
        <g id="New-Identity-Icon" fill="#000000" fill-rule="nonzero">
            <path d="M4.65687153,14.5532899 L5.79494313,12.0855326 C5.8689125,11.9251399 5.6620883,11.7793527 5.53742729,11.9040137 L3.77194352,13.6694975 L2.32342782,12.2228406 L4.089841,10.4564274 C4.21450201,10.3317664 4.06871482,10.1249422 3.90832206,10.1989116 L1.43773764,11.338287 L0.206601383,10.1087306 C0.0509544211,9.9532834 -0.0167994233,9.75447206 0.00351451705,9.53432844 C0.0238284574,9.31418483 0.154794797,9.13897939 0.330406365,9.0302193 L4.61213917,6.53066101 C4.98542292,6.31331572 5.42541251,6.16259067 5.8659261,6.07796117 C6.63682488,5.92985954 7.40999434,6.06817199 8.09666802,6.42610336 L12.618483,1.910278 C13.0562019,1.47313888 13.7399062,1.45652879 14.1403159,1.87828207 C14.5407256,2.30003536 14.523905,2.96081599 14.0861861,3.39795511 L9.56437119,7.91378047 C9.92258101,8.57753432 10.0391721,9.37155544 9.91292178,10.1416209 C9.85023328,10.5817332 9.67706706,10.9989392 9.45960494,11.3937636 L6.95651989,15.6478297 C6.84761416,15.82321 6.6720026,15.9319701 6.47398108,15.9964916 C6.25354962,16.0167745 6.0544801,15.9491049 5.89883314,15.7936577 L4.65687153,14.5532899 L4.65687153,14.5532899 Z M6.35600863,9.57888316 C6.35684236,9.57982492 6.35770616,9.58074275 6.35860024,9.58163642 L7.56801202,10.7899206 C7.78820303,11.010009 8.15567242,10.9533982 8.29166823,10.678253 C8.42766403,10.4031079 8.55818512,10.1511975 8.61427424,9.83946755 C8.73630873,9.14856819 8.51477165,8.45005355 8.01189873,7.92920397 C8.01085853,7.92816425 8.00979562,7.92715687 8.00871022,7.92618158 C8.00773493,7.92509618 8.00672754,7.92403327 8.00568783,7.92299307 C7.48483824,7.42012014 6.7863236,7.19858307 6.09542425,7.32061756 C5.78369428,7.37670668 5.53178393,7.50722777 5.25663877,7.64322357 C4.98149362,7.77921937 4.92488284,8.14668876 5.14497116,8.36687978 L6.35325537,9.57629155 C6.35414904,9.57718564 6.35506687,9.57804944 6.35600863,9.57888316 L6.35600863,9.57888316 Z M3.56503003,4.86094581 C3.44279837,4.85716019 3.33693302,4.76594656 3.31450832,4.6450962 C3.29259157,4.50098143 3.24425431,4.36089837 3.1719467,4.23194774 C3.04272848,4.15978087 2.90235166,4.11153221 2.75793184,4.08964745 C2.63678145,4.06729735 2.5453314,3.9616241 2.54155161,3.83961366 C2.53777182,3.71760322 2.62276629,3.61489221 2.74265726,3.59658884 C2.88757581,3.57942626 3.02687427,3.53584537 3.15371096,3.46798665 C3.21938702,3.3436261 3.26061987,3.20700605 3.27529255,3.0651408 C3.29205048,2.94466859 3.39451537,2.85825378 3.5172925,2.86104768 C3.6386065,2.86399065 3.74452528,2.95324633 3.76872081,3.07292141 C3.79288781,3.21715288 3.84342323,3.35694342 3.91777207,3.4852254 C4.04615548,3.55876237 4.18583906,3.60883869 4.32991405,3.63297757 C4.45015386,3.6576218 4.53936117,3.76418021 4.54139495,3.88559216 C4.54342874,4.00700411 4.45770065,4.10814717 4.33816215,4.12536877 C4.1960481,4.14067978 4.05931708,4.18249381 3.9349938,4.24866259 C3.86697751,4.37522253 3.82328954,4.51422019 3.80607564,4.65882867 C3.78847982,4.77811508 3.68677836,4.86339193 3.56503003,4.86094581 Z M14.4103464,14.3126948 C14.2513672,14.307719 14.1137716,14.188804 14.0849193,14.0314492 C14.045996,13.7585014 13.9510862,13.4938971 13.8061961,13.2543814 C13.5663773,13.109665 13.301434,13.0148623 13.0281329,12.9759728 C12.8707684,12.946921 12.75198,12.8095493 12.7470672,12.6509372 C12.7421545,12.492325 12.8525523,12.3587997 13.0082799,12.3350024 C13.2816632,12.3044807 13.5433622,12.2185794 13.7775725,12.0824861 C13.9099238,11.8524988 13.992337,11.5955854 14.0197279,11.3275956 C14.0417134,11.1717293 14.1740126,11.0598594 14.3327736,11.0628895 C14.4905572,11.0667732 14.6282205,11.1831391 14.6593783,11.3389665 C14.703143,11.6110771 14.8017156,11.8740418 14.9490566,12.1117486 C15.1872615,12.2578242 15.450159,12.3559923 15.7221615,12.4004323 C15.8783433,12.4324665 15.9942186,12.5709889 15.9968634,12.7288231 C15.9995083,12.8866572 15.8881575,13.0181443 15.7328877,13.0405352 C15.4641157,13.0669716 15.2064728,13.14931 14.9763475,13.2823129 C14.8406047,13.5164173 14.7548186,13.7777086 14.724105,14.0506041 C14.7009285,14.2056508 14.5685348,14.3162427 14.4103464,14.3126948 Z M8.37194288,2.75251202 C8.23729358,2.7482977 8.12075529,2.6475812 8.09631849,2.5143077 C8.06335201,2.28313133 7.98296703,2.05902158 7.86025062,1.85616098 C7.65713325,1.73359169 7.43273641,1.65329741 7.2012608,1.62035947 C7.06797908,1.59575373 6.9673698,1.47940513 6.96320889,1.34506671 C6.95904797,1.21072829 7.05255074,1.09763741 7.18444606,1.07748204 C7.41599123,1.0516313 7.6376403,0.978876138 7.83600755,0.863610339 C7.94810399,0.668819911 8.01790485,0.45122403 8.04110388,0.224246882 C8.05972477,0.0922341146 8.17177714,-0.00251545243 8.30624168,5.089704e-05 C8.43987839,0.00334026838 8.55647391,0.101897787 8.58286336,0.233877601 C8.61993042,0.464344927 8.70341768,0.687066016 8.82820981,0.888394549 C9.02996027,1.012115 9.25262444,1.09525963 9.4830002,1.13289867 C9.6152802,1.16003037 9.71342219,1.27735361 9.71566226,1.41103311 C9.71790232,1.5447126 9.62359245,1.65607713 9.49208487,1.67504141 C9.26444525,1.69743199 9.04623153,1.76716948 8.85132417,1.87981789 C8.73635526,2.07809534 8.66369764,2.2993991 8.63768445,2.53053117 C8.61805481,2.66184983 8.50592239,2.75551697 8.37194288,2.75251202 Z" id="Shape" fill="context-fill" fill-opacity="context-fill-opacity"></path>
        </g>
    </g>
</svg>