<?xml version="1.0" encoding="UTF-8"?>
<svg width="512px" height="512px" viewBox="-17 -17 546 546" version="1.1" xmlns="http://www.w3.org/2000/svg" xmlns:xlink="http://www.w3.org/1999/xlink">
    <defs>
        <linearGradient x1="50%" y1="3.27248873%" x2="50%" y2="97.1599968%" id="linearGradient-1">
            <stop stop-color="#00FEFF" offset="0%"></stop>
            <stop stop-color="#0BE67D" offset="100%"></stop>
        </linearGradient>
        <path d="M25,25 C152.50841,25 255.874399,127.979815 255.874399,255.011855 C255.874399,382.043895 152.50841,485.02371 25,485.02371 L25,25 Z" id="path-2"></path>
        <filter x="-20.8%" y="-8.7%" width="134.7%" height="117.4%" filterUnits="objectBoundingBox" id="filter-3">
            <feOffset dx="-8" dy="0" in="SourceAlpha" result="shadowOffsetOuter1"></feOffset>
            <feGaussianBlur stdDeviation="12" in="shadowOffsetOuter1" result="shadowBlurOuter1"></feGaussianBlur>
            <feColorMatrix values="0 0 0 0 0.0872579578   0 0 0 0 0.00490370801   0 0 0 0 0.234933036  0 0 0 0.5 0" type="matrix" in="shadowBlurOuter1"></feColorMatrix>
        </filter>
    </defs>
    <g id="Alpha" stroke="none" stroke-width="1" fill="none" fill-rule="evenodd">
        <g>
            <circle id="background" fill-opacity="0.9" fill="#030004" fill-rule="nonzero" cx="256" cy="256" r="246"></circle>
            <path d="M256.525143,465.439707 L256.525143,434.406609 C354.826191,434.122748 434.420802,354.364917 434.420802,255.992903 C434.420802,157.627987 354.826191,77.8701558 256.525143,77.5862948 L256.525143,46.5531962 C371.964296,46.8441537 465.446804,140.489882 465.446804,255.992903 C465.446804,371.503022 371.964296,465.155846 256.525143,465.439707 Z M256.525143,356.820314 C311.970283,356.529356 356.8487,311.516106 356.8487,255.992903 C356.8487,200.476798 311.970283,155.463547 256.525143,155.17259 L256.525143,124.146588 C329.115485,124.430449 387.881799,183.338693 387.881799,255.992903 C387.881799,328.654211 329.115485,387.562455 256.525143,387.846316 L256.525143,356.820314 Z M256.525143,201.718689 C286.266674,202.00255 310.3026,226.180407 310.3026,255.992903 C310.3026,285.812497 286.266674,309.990353 256.525143,310.274214 L256.525143,201.718689 Z M0,255.992903 C0,397.384044 114.60886,512 256,512 C397.384044,512 512,397.384044 512,255.992903 C512,114.60886 397.384044,2.84217094e-14 256,2.84217094e-14 C114.60886,2.84217094e-14 0,114.60886 0,255.992903 Z" id="center" fill="url(#linearGradient-1)"></path>
            <g id="half" transform="translate(140.437200, 255.011855) scale(-1, 1) translate(-140.437200, -255.011855) ">
                <use fill="black" fill-opacity="1" filter="url(#filter-3)" xlink:href="#path-2"></use>
                <use fill="url(#linearGradient-1)" fill-rule="evenodd" xlink:href="#path-2"></use>
            </g>
        </g>
    </g>
</svg>