<svg xmlns="http://www.w3.org/2000/svg" viewBox="0 0 24 24">
  <g fill="context-fill" fill-opacity="context-fill-opacity" fill-rule="nonzero">
    <path d="M12.0246161,21.8174863 L12.0246161,20.3628098 C16.6324777,20.3495038 20.3634751,16.6108555 20.3634751,11.9996673 C20.3634751,7.38881189 16.6324777,3.65016355 12.0246161,3.63685757 L12.0246161,2.18218107 C17.4358264,2.1958197 21.8178189,6.58546322 21.8178189,11.9996673 C21.8178189,17.4142042 17.4358264,21.8041803 12.0246161,21.8174863 L12.0246161,21.8174863 Z M12.0246161,16.7259522 C14.623607,16.7123136 16.7272828,14.6023175 16.7272828,11.9996673 C16.7272828,9.39734991 14.623607,7.28735377 12.0246161,7.27371516 L12.0246161,5.81937131 C15.4272884,5.8326773 18.1819593,8.59400123 18.1819593,11.9996673 C18.1819593,15.4056661 15.4272884,18.1669901 12.0246161,18.1802961 L12.0246161,16.7259522 Z M12.0246161,9.45556355 C13.4187503,9.46886953 14.5454344,10.6022066 14.5454344,11.9996673 C14.5454344,13.3974608 13.4187503,14.5307978 12.0246161,14.5441038 L12.0246161,9.45556355 Z M0,11.9996673 C0,18.6273771 5.37229031,24 12,24 C18.6273771,24 24,18.6273771 24,11.9996673 C24,5.37229031 18.6273771,0 12,0 C5.37229031,0 0,5.37229031 0,11.9996673 Z"/>
  </g>
</svg>